# xmcd
#
# Track frame offsets:
#	150
#	14467
#	29312
#	43034
#	58834
#	71879
#	89502
#	103830
#	114212
#	130138
#	143365
#	155086
#	168022
#	175936
#
# Disc length: 2516 seconds
#
# Revision: 1
# Processed by: cddbd v1.4PL0 Copyright (c) Steve Scherf et al.
# Submitted via: audiograbber 1.80
#
DISCID=bb09d20e
DTITLE=Mato Grosso and Mathias - Acustico
DYEAR=1900
DGENRE=
TTITLE0=De igual pra igual
TTITLE1=Foi pensando em você
TTITLE2=Irmãos de sangue
TTITLE3=O matuto
TTITLE4=24 horas de amor
TTITLE5=Ímã
TTITLE6=Volte amor
TTITLE7=Pedaço de minha vida
TTITLE8=Memória
TTITLE9=Porque?
TTITLE10=Falso juramento
TTITLE11=Espinhos da vida
TTITLE12=Pai Tião
TTITLE13=Depois de uma
EXTD=
EXTT0=
EXTT1=
EXTT2=
EXTT3=
EXTT4=
EXTT5=
EXTT6=
EXTT7=
EXTT8=
EXTT9=
EXTT10=
EXTT11=
EXTT12=
EXTT13=
PLAYORDER=
